<svg width="705" height="345" viewBox="0 0 705 345" fill="none" xmlns="http://www.w3.org/2000/svg">
<circle cx="208.632" cy="8.21394" r="8.21394" fill="#6BB080"/>
<circle cx="307.202" cy="8.21394" r="8.21394" fill="#6BB080"/>
<circle cx="405.771" cy="8.21394" r="8.21394" fill="#6BB080"/>
<circle cx="504.337" cy="8.21394" r="8.21394" fill="#6BB080"/>
<circle cx="105.136" cy="90.3536" r="8.21394" fill="#6BB080"/>
<circle cx="302.271" cy="90.3546" r="8.21394" fill="#6BB080"/>
<circle cx="203.704" cy="90.3546" r="8.21394" fill="#6BB080"/>
<circle cx="400.839" cy="90.3546" r="8.21394" fill="#6BB080"/>
<circle cx="499.405" cy="90.3546" r="8.21394" fill="#6BB080"/>
<circle cx="597.976" cy="90.3546" r="8.21394" fill="#6BB080"/>
<circle cx="696.542" cy="90.3546" r="8.21394" fill="#6BB080"/>
<circle cx="8.21394" cy="336.774" r="8.21394" transform="rotate(-90 8.21394 336.774)" fill="#6BB080"/>
<circle cx="8.21394" cy="172.496" r="8.21394" transform="rotate(-90 8.21394 172.496)" fill="#6BB080"/>
<circle cx="8.21394" cy="254.635" r="8.21394" transform="rotate(-90 8.21394 254.635)" fill="#6BB080"/>
<circle cx="8.21394" cy="90.3564" r="8.21394" transform="rotate(-90 8.21394 90.3564)" fill="#6BB080"/>
<circle cx="105.138" cy="8.21575" r="8.21394" transform="rotate(-90 105.138 8.21575)" fill="#6BB080"/>
<circle cx="105.136" cy="172.494" r="8.21394" fill="#6BB080"/>
<circle cx="302.271" cy="172.494" r="8.21394" fill="#6BB080"/>
<circle cx="203.704" cy="172.494" r="8.21394" fill="#6BB080"/>
<circle cx="400.839" cy="172.494" r="8.21394" fill="#6BB080"/>
<circle cx="499.405" cy="172.494" r="8.21394" fill="#6BB080"/>
<circle cx="597.976" cy="172.494" r="8.21394" fill="#6BB080"/>
<circle cx="696.542" cy="172.494" r="8.21394" fill="#6BB080"/>
<circle cx="105.136" cy="254.634" r="8.21394" fill="#6BB080"/>
<circle cx="302.271" cy="254.634" r="8.21394" fill="#6BB080"/>
<circle cx="203.704" cy="254.634" r="8.21394" fill="#6BB080"/>
<circle cx="400.839" cy="254.634" r="8.21394" fill="#6BB080"/>
<circle cx="499.405" cy="254.634" r="8.21394" fill="#6BB080"/>
<circle cx="597.976" cy="254.634" r="8.21394" fill="#6BB080"/>
<circle cx="696.542" cy="254.634" r="8.21394" fill="#6BB080"/>
<circle cx="105.136" cy="336.774" r="8.21394" fill="#6BB080"/>
<circle cx="302.271" cy="336.774" r="8.21394" fill="#6BB080"/>
<circle cx="203.704" cy="336.774" r="8.21394" fill="#6BB080"/>
<circle cx="400.839" cy="336.774" r="8.21394" fill="#6BB080"/>
<circle cx="499.405" cy="336.774" r="8.21394" fill="#6BB080"/>
<circle cx="597.976" cy="336.774" r="8.21394" fill="#6BB080"/>
<circle cx="696.542" cy="336.774" r="8.21394" fill="#6BB080"/>
</svg>
