<svg width="534" height="270" viewBox="0 0 534 270" fill="none" xmlns="http://www.w3.org/2000/svg">
<ellipse cx="158.008" cy="6.42109" rx="6.22094" ry="6.42109" fill="#6BB080"/>
<ellipse cx="232.66" cy="6.42109" rx="6.22094" ry="6.42109" fill="#6BB080"/>
<ellipse cx="307.313" cy="6.42109" rx="6.22094" ry="6.42109" fill="#6BB080"/>
<ellipse cx="381.963" cy="6.42109" rx="6.22094" ry="6.42109" fill="#6BB080"/>
<ellipse cx="79.6272" cy="70.6318" rx="6.22094" ry="6.42109" fill="#6BB080"/>
<ellipse cx="228.93" cy="70.632" rx="6.22094" ry="6.42109" fill="#6BB080"/>
<ellipse cx="154.278" cy="70.632" rx="6.22094" ry="6.42109" fill="#6BB080"/>
<ellipse cx="303.58" cy="70.632" rx="6.22094" ry="6.42109" fill="#6BB080"/>
<ellipse cx="378.231" cy="70.632" rx="6.22094" ry="6.42109" fill="#6BB080"/>
<ellipse cx="452.885" cy="70.632" rx="6.22094" ry="6.42109" fill="#6BB080"/>
<ellipse cx="527.535" cy="70.632" rx="6.22094" ry="6.42109" fill="#6BB080"/>
<ellipse cx="6.22094" cy="263.265" rx="6.42109" ry="6.22094" transform="rotate(-90 6.22094 263.265)" fill="#6BB080"/>
<ellipse cx="6.22094" cy="134.844" rx="6.42109" ry="6.22094" transform="rotate(-90 6.22094 134.844)" fill="#6BB080"/>
<ellipse cx="6.22094" cy="199.054" rx="6.42109" ry="6.22094" transform="rotate(-90 6.22094 199.054)" fill="#6BB080"/>
<ellipse cx="6.22094" cy="70.633" rx="6.42109" ry="6.22094" transform="rotate(-90 6.22094 70.633)" fill="#6BB080"/>
<ellipse cx="79.6272" cy="6.42205" rx="6.42109" ry="6.22094" transform="rotate(-90 79.6272 6.42205)" fill="#6BB080"/>
<ellipse cx="79.6272" cy="134.843" rx="6.22094" ry="6.42109" fill="#6BB080"/>
<ellipse cx="228.93" cy="134.843" rx="6.22094" ry="6.42109" fill="#6BB080"/>
<ellipse cx="154.278" cy="134.843" rx="6.22094" ry="6.42109" fill="#6BB080"/>
<ellipse cx="303.58" cy="134.843" rx="6.22094" ry="6.42109" fill="#6BB080"/>
<ellipse cx="378.231" cy="134.843" rx="6.22094" ry="6.42109" fill="#6BB080"/>
<ellipse cx="452.885" cy="134.843" rx="6.22094" ry="6.42109" fill="#6BB080"/>
<ellipse cx="527.535" cy="134.843" rx="6.22094" ry="6.42109" fill="#6BB080"/>
<ellipse cx="79.6272" cy="199.054" rx="6.22094" ry="6.42109" fill="#6BB080"/>
<ellipse cx="228.93" cy="199.054" rx="6.22094" ry="6.42109" fill="#6BB080"/>
<ellipse cx="154.278" cy="199.054" rx="6.22094" ry="6.42109" fill="#6BB080"/>
<ellipse cx="303.58" cy="199.054" rx="6.22094" ry="6.42109" fill="#6BB080"/>
<ellipse cx="378.231" cy="199.054" rx="6.22094" ry="6.42109" fill="#6BB080"/>
<ellipse cx="452.885" cy="199.054" rx="6.22094" ry="6.42109" fill="#6BB080"/>
<ellipse cx="527.535" cy="199.054" rx="6.22094" ry="6.42109" fill="#6BB080"/>
<ellipse cx="79.6272" cy="263.265" rx="6.22094" ry="6.42109" fill="#6BB080"/>
<ellipse cx="228.93" cy="263.265" rx="6.22094" ry="6.42109" fill="#6BB080"/>
<ellipse cx="154.278" cy="263.265" rx="6.22094" ry="6.42109" fill="#6BB080"/>
<ellipse cx="303.58" cy="263.265" rx="6.22094" ry="6.42109" fill="#6BB080"/>
<ellipse cx="378.231" cy="263.265" rx="6.22094" ry="6.42109" fill="#6BB080"/>
<ellipse cx="452.885" cy="263.265" rx="6.22094" ry="6.42109" fill="#6BB080"/>
<ellipse cx="527.535" cy="263.265" rx="6.22094" ry="6.42109" fill="#6BB080"/>
</svg>
