<svg width="673" height="330" viewBox="0 0 673 330" fill="none" xmlns="http://www.w3.org/2000/svg">
<circle cx="199.064" cy="7.83722" r="7.83722" fill="#227C9D" fill-opacity="0.6"/>
<circle cx="293.113" cy="7.83722" r="7.83722" fill="#227C9D" fill-opacity="0.6"/>
<circle cx="387.159" cy="7.83722" r="7.83722" fill="#227C9D" fill-opacity="0.6"/>
<circle cx="481.202" cy="7.83722" r="7.83722" fill="#227C9D" fill-opacity="0.6"/>
<circle cx="100.318" cy="86.2093" r="7.83722" fill="#227C9D" fill-opacity="0.6"/>
<circle cx="288.411" cy="86.2103" r="7.83722" fill="#227C9D" fill-opacity="0.6"/>
<circle cx="194.363" cy="86.2103" r="7.83722" fill="#227C9D" fill-opacity="0.6"/>
<circle cx="382.456" cy="86.2103" r="7.83722" fill="#227C9D" fill-opacity="0.6"/>
<circle cx="476.501" cy="86.2103" r="7.83722" fill="#227C9D" fill-opacity="0.6"/>
<circle cx="570.55" cy="86.2103" r="7.83722" fill="#227C9D" fill-opacity="0.6"/>
<circle cx="664.597" cy="86.2103" r="7.83722" fill="#227C9D" fill-opacity="0.6"/>
<circle cx="7.83722" cy="321.327" r="7.83722" transform="rotate(-90 7.83722 321.327)" fill="#227C9D" fill-opacity="0.6"/>
<circle cx="7.83722" cy="164.584" r="7.83722" transform="rotate(-90 7.83722 164.584)" fill="#227C9D" fill-opacity="0.6"/>
<circle cx="7.83722" cy="242.955" r="7.83722" transform="rotate(-90 7.83722 242.955)" fill="#227C9D" fill-opacity="0.6"/>
<circle cx="7.83722" cy="86.2116" r="7.83722" transform="rotate(-90 7.83722 86.2116)" fill="#227C9D" fill-opacity="0.6"/>
<circle cx="100.314" cy="7.83856" r="7.83722" transform="rotate(-90 100.314 7.83856)" fill="#227C9D" fill-opacity="0.6"/>
<circle cx="100.318" cy="164.582" r="7.83722" fill="#227C9D" fill-opacity="0.6"/>
<circle cx="288.411" cy="164.582" r="7.83722" fill="#227C9D" fill-opacity="0.6"/>
<circle cx="194.363" cy="164.582" r="7.83722" fill="#227C9D" fill-opacity="0.6"/>
<circle cx="382.456" cy="164.582" r="7.83722" fill="#227C9D" fill-opacity="0.6"/>
<circle cx="476.501" cy="164.582" r="7.83722" fill="#227C9D" fill-opacity="0.6"/>
<circle cx="570.55" cy="164.582" r="7.83722" fill="#227C9D" fill-opacity="0.6"/>
<circle cx="664.597" cy="164.582" r="7.83722" fill="#227C9D" fill-opacity="0.6"/>
<circle cx="100.318" cy="242.954" r="7.83722" fill="#227C9D" fill-opacity="0.6"/>
<circle cx="288.411" cy="242.954" r="7.83722" fill="#227C9D" fill-opacity="0.6"/>
<circle cx="194.363" cy="242.954" r="7.83722" fill="#227C9D" fill-opacity="0.6"/>
<circle cx="382.456" cy="242.954" r="7.83722" fill="#227C9D" fill-opacity="0.6"/>
<circle cx="476.501" cy="242.954" r="7.83722" fill="#227C9D" fill-opacity="0.6"/>
<circle cx="570.55" cy="242.954" r="7.83722" fill="#227C9D" fill-opacity="0.6"/>
<circle cx="664.597" cy="242.954" r="7.83722" fill="#227C9D" fill-opacity="0.6"/>
<circle cx="100.318" cy="321.327" r="7.83722" fill="#227C9D" fill-opacity="0.6"/>
<circle cx="288.411" cy="321.327" r="7.83722" fill="#227C9D" fill-opacity="0.6"/>
<circle cx="194.363" cy="321.327" r="7.83722" fill="#227C9D" fill-opacity="0.6"/>
<circle cx="382.456" cy="321.327" r="7.83722" fill="#227C9D" fill-opacity="0.6"/>
<circle cx="476.501" cy="321.327" r="7.83722" fill="#227C9D" fill-opacity="0.6"/>
<circle cx="570.55" cy="321.327" r="7.83722" fill="#227C9D" fill-opacity="0.6"/>
<circle cx="664.597" cy="321.327" r="7.83722" fill="#227C9D" fill-opacity="0.6"/>
</svg>
